<svg width="21" height="21" viewBox="0 0 21 21" fill="none" xmlns="http://www.w3.org/2000/svg">
<path d="M4.03761 7.11292C3.94396 7.11292 3.86804 7.18884 3.86804 7.28248V9.29675C3.86804 9.3904 3.94396 9.46632 4.03761 9.46632H6.3723C7.02217 9.46632 7.549 8.93949 7.549 8.28962C7.549 7.63975 7.02217 7.11292 6.3723 7.11292H4.03761Z" fill="#26462F"/>
<path d="M4.03761 10.9749C3.94396 10.9749 3.86804 11.0508 3.86804 11.1445V13.5812C3.86804 13.6748 3.94396 13.7507 4.03761 13.7507H6.52316C7.28968 13.7507 7.91106 13.1293 7.91106 12.3628C7.91106 11.5963 7.28968 10.9749 6.52316 10.9749H4.03761Z" fill="#26462F"/>
<path d="M13.6813 11.0956C13.6401 11.0956 13.6066 11.0621 13.6066 11.0209C13.6066 10.1957 14.2756 9.52666 15.1008 9.52666H15.4313C16.2565 9.52666 16.9255 10.1956 16.9255 11.0209C16.9255 11.0621 16.8921 11.0956 16.8508 11.0956H13.6813Z" fill="#26462F"/>
<path fill-rule="evenodd" clip-rule="evenodd" d="M10.6576 10.1683C10.6034 10.1 10.5469 10.0337 10.4883 9.96964C10.8548 9.3903 11.0411 8.71535 11.0237 8.03034C11.039 7.4414 10.9211 6.85643 10.6786 6.31911C10.4422 5.78489 10.0643 5.32543 9.58571 4.99032L9.57613 4.98368C9.12474 4.67374 8.61297 4.46276 8.07446 4.36447C7.55741 4.25749 7.03032 4.2065 6.50231 4.21237H1.69569C0.993328 4.21237 0.42395 4.78175 0.42395 5.48411V15.6214C0.42395 16.3237 0.993328 16.8931 1.69569 16.8931H6.61364C7.17055 16.8935 7.72524 16.823 8.26431 16.6832C8.81848 16.5398 9.34356 16.3013 9.81605 15.9781L9.82226 15.9738C10.2938 15.6472 10.6847 15.2184 10.9661 14.72C11.147 15.0667 11.3696 15.391 11.6295 15.6857C11.6368 15.694 11.6442 15.7022 11.6517 15.7103C12.1083 16.2015 12.6691 16.5842 13.2929 16.8308L13.3088 16.8369C13.9495 17.0802 14.6303 17.201 15.3155 17.1932C16.3011 17.2179 17.2735 16.9581 18.1152 16.4442C18.1399 16.4292 18.164 16.4133 18.1876 16.3966C19.0753 15.7679 19.7152 14.849 19.9955 13.7983C20.0509 13.5903 20.052 13.3748 20.0026 13.1709C20.0979 13.0078 20.158 12.8211 20.1723 12.6209C20.2202 11.9489 20.1626 11.2737 20.0016 10.6195L20.0004 10.6147C19.8362 9.95876 19.5491 9.33994 19.1542 8.79086L19.141 8.77277C18.723 8.21258 18.1833 7.7544 17.5628 7.43233C17.5545 7.42804 17.5462 7.42383 17.5378 7.41972C16.8605 7.08687 16.1141 6.91838 15.3595 6.92772C14.6698 6.92458 13.9861 7.0582 13.3484 7.32096L13.3402 7.32436C12.7404 7.57638 12.1966 7.94499 11.7407 8.40892L11.7307 8.41924C11.2731 8.89553 10.9185 9.46085 10.6892 10.0801L10.6884 10.0825C10.6779 10.111 10.6676 10.1396 10.6576 10.1683ZM8.33212 10.1095C8.81975 10.2271 9.25659 10.4926 9.58439 10.8665C9.64066 10.9307 9.69372 10.9981 9.74327 11.0685C9.76704 11.1046 9.78992 11.1411 9.81192 11.1782C10.081 11.6312 10.217 12.1518 10.2029 12.6801C10.2167 13.1413 10.1141 13.5986 9.90455 14.0097C9.71517 14.3774 9.43825 14.6928 9.09817 14.9284C8.7471 15.1684 8.35691 15.3457 7.94506 15.4522C7.7503 15.5027 7.553 15.542 7.35415 15.5699C7.10937 15.6043 6.86224 15.6216 6.61455 15.6214H1.69569V5.48411H6.50972C6.95393 5.47868 7.39739 5.52191 7.83217 5.61304C8.19956 5.67804 8.54876 5.82092 8.85626 6.03207C9.1463 6.23516 9.37501 6.51389 9.51749 6.83789C9.68708 7.21189 9.76714 7.62022 9.75133 8.03051C9.76758 8.43592 9.67089 8.83696 9.47331 9.18943C9.45162 9.22813 9.42871 9.26625 9.4046 9.30372C9.13947 9.66034 8.74254 9.93876 8.33212 10.1095ZM13.5668 12.712C13.564 12.6518 13.564 12.5912 13.5668 12.5304H18.9037C18.9114 12.4229 18.9157 12.3152 18.9167 12.2076C18.9179 12.0693 18.9136 11.9311 18.9037 11.7933C18.891 11.6142 18.8689 11.4357 18.8375 11.2587C18.8176 11.1463 18.794 11.0345 18.7667 10.9234C18.6416 10.4236 18.4228 9.95198 18.1217 9.53334C17.8187 9.12724 17.4273 8.79485 16.977 8.56109C16.4759 8.31485 15.9232 8.19091 15.3646 8.19951C14.8392 8.19568 14.3184 8.29677 13.8328 8.49681C13.3882 8.68362 12.9854 8.95676 12.6477 9.30032C12.3111 9.65074 12.0504 10.0665 11.8819 10.5216C11.701 11.013 11.6109 11.533 11.6158 12.0563C11.6075 12.5871 11.6949 13.1151 11.8738 13.6151C12.0258 14.0679 12.267 14.4859 12.5832 14.8445C12.9105 15.1966 13.3127 15.4711 13.7603 15.648C14.2594 15.8376 14.7902 15.9303 15.3243 15.9212C16.0736 15.9445 16.8133 15.749 17.4526 15.3588C17.7016 15.1824 17.9238 14.9747 18.1144 14.7423C18.345 14.4611 18.5294 14.1438 18.6596 13.8022C18.7008 13.6939 18.7366 13.5833 18.7667 13.4705H16.985C16.9395 13.5909 16.8758 13.7026 16.7968 13.8022C16.7101 13.9114 16.6049 14.0059 16.4852 14.0812C16.1751 14.286 15.8089 14.3898 15.4371 14.3785C15.191 14.4041 14.9423 14.3787 14.7065 14.3041C14.4706 14.2294 14.2528 14.107 14.0666 13.9446C14.026 13.8987 13.9877 13.8512 13.9517 13.8022C13.7187 13.4845 13.5847 13.1052 13.5668 12.712Z" fill="#26462F"/>
<path d="M17.3352 5.4227C17.3333 5.23675 17.182 5.08701 16.9961 5.08701H13.5837C13.3964 5.08701 13.2445 5.23885 13.2445 5.42614V6.33441C13.2445 6.5217 13.3964 6.67354 13.5837 6.67354H17.0053C17.194 6.67354 17.3463 6.51959 17.3444 6.33096L17.3352 5.4227Z" fill="#26462F"/>
</svg>
