<svg width="21" height="21" viewBox="0 0 21 21" fill="none" xmlns="http://www.w3.org/2000/svg">
<path d="M14.2174 5.93452C14.2174 5.46628 14.5969 5.08669 15.0652 5.08669C15.5334 5.08669 15.913 5.46628 15.913 5.93452C15.913 6.40276 15.5334 6.78235 15.0652 6.78235C14.5969 6.78235 14.2174 6.40276 14.2174 5.93452Z" fill="#26462F"/>
<path fill-rule="evenodd" clip-rule="evenodd" d="M10.8261 6.14648C8.6019 6.14648 6.79887 7.94951 6.79887 10.1737C6.79887 12.3978 8.6019 14.2008 10.8261 14.2008C13.0502 14.2008 14.8532 12.3978 14.8532 10.1737C14.8532 7.94951 13.0502 6.14648 10.8261 6.14648ZM8.07061 10.1737C8.07061 8.65187 9.30427 7.41822 10.8261 7.41822C12.3478 7.41822 13.5815 8.65187 13.5815 10.1737C13.5815 11.6954 12.3478 12.9291 10.8261 12.9291C9.30427 12.9291 8.07061 11.6954 8.07061 10.1737Z" fill="#26462F"/>
<path fill-rule="evenodd" clip-rule="evenodd" d="M15.2841 2.40164C12.3451 2.07315 9.30704 2.07315 6.36798 2.40164C4.6621 2.59229 3.28495 3.93611 3.08439 5.65086C2.73294 8.65582 2.73294 11.6915 3.08439 14.6965C3.28495 16.4112 4.66211 17.755 6.36798 17.9457C9.30704 18.2742 12.3451 18.2742 15.2841 17.9457C16.99 17.755 18.3672 16.4112 18.5677 14.6965C18.9192 11.6915 18.9192 8.65582 18.5677 5.65086C18.3672 3.93611 16.99 2.59229 15.2841 2.40164ZM6.50924 3.66551C9.35442 3.34752 12.2977 3.34752 15.1429 3.66551C16.2706 3.79155 17.1739 4.68144 17.3046 5.7986C17.6446 8.7054 17.6446 11.6419 17.3046 14.5487C17.1739 15.6659 16.2706 16.5558 15.1429 16.6818C12.2977 16.9998 9.35442 16.9998 6.50924 16.6818C5.38154 16.5558 4.47819 15.6659 4.34752 14.5487C4.00755 11.6419 4.00755 8.7054 4.34752 5.7986C4.47819 4.68144 5.38154 3.79155 6.50924 3.66551Z" fill="#26462F"/>
</svg>
