<svg width="22" height="21" viewBox="0 0 22 21" fill="none" xmlns="http://www.w3.org/2000/svg">
<path fill-rule="evenodd" clip-rule="evenodd" d="M5.06517 1.05957C3.7775 1.05957 2.73364 2.10343 2.73364 3.3911C2.73364 4.67876 3.7775 5.72262 5.06517 5.72262C6.35283 5.72262 7.39669 4.67876 7.39669 3.3911C7.39669 2.10343 6.35283 1.05957 5.06517 1.05957ZM4.00538 3.3911C4.00538 2.80579 4.47987 2.33131 5.06517 2.33131C5.65047 2.33131 6.12495 2.80579 6.12495 3.3911C6.12495 3.9764 5.65047 4.45088 5.06517 4.45088C4.47987 4.45088 4.00538 3.9764 4.00538 3.3911Z" fill="#26462F"/>
<path fill-rule="evenodd" clip-rule="evenodd" d="M2.73364 6.78241C2.73364 6.43122 3.01833 6.14654 3.36951 6.14654H6.76082C7.11201 6.14654 7.39669 6.43122 7.39669 6.78241V17.8042C7.39669 18.1553 7.11201 18.44 6.76082 18.44H3.36951C3.01833 18.44 2.73364 18.1553 2.73364 17.8042V6.78241ZM4.00538 7.41828V17.1683H6.12495V7.41828H4.00538Z" fill="#26462F"/>
<path fill-rule="evenodd" clip-rule="evenodd" d="M8.66844 6.78241C8.66844 6.43122 8.95312 6.14654 9.30431 6.14654H12.6956C13.0468 6.14654 13.3315 6.43122 13.3315 6.78241V7.15038L13.7005 6.99223C14.335 6.72031 15.0135 6.5498 15.6997 6.48742C18.0524 6.27354 20.1141 8.1223 20.1141 10.4961V17.8042C20.1141 18.1553 19.8294 18.44 19.4782 18.44H16.0869C15.7357 18.44 15.4511 18.1553 15.4511 17.8042V11.8694C15.4511 11.5883 15.3394 11.3187 15.1407 11.12C14.9419 10.9212 14.6723 10.8096 14.3913 10.8096C14.1102 10.8096 13.8406 10.9212 13.6419 11.12C13.4431 11.3187 13.3315 11.5883 13.3315 11.8694V17.8042C13.3315 18.1553 13.0468 18.44 12.6956 18.44H9.30431C8.95312 18.44 8.66844 18.1553 8.66844 17.8042V6.78241ZM9.94018 7.41828V17.1683H12.0597V11.8694C12.0597 11.251 12.3054 10.658 12.7426 10.2207C13.1799 9.78349 13.7729 9.53785 14.3913 9.53785C15.0096 9.53785 15.6027 9.78349 16.0399 10.2207C16.4772 10.658 16.7228 11.251 16.7228 11.8694V17.1683H18.8424V10.4961C18.8424 8.88152 17.4342 7.60672 15.8148 7.75394C15.2603 7.80435 14.7121 7.9423 14.2015 8.16114L12.9461 8.69916C12.7496 8.78336 12.524 8.76322 12.3456 8.64556C12.1671 8.52789 12.0597 8.32845 12.0597 8.11471V7.41828H9.94018Z" fill="#26462F"/>
</svg>
