<svg width="103" height="89" viewBox="0 0 103 89" fill="none" xmlns="http://www.w3.org/2000/svg">
<path d="M95.8413 51.7324C102.009 61.945 94.1598 68.3089 89.4643 70.2143C90.7968 78.312 86.7517 83.7899 76.0918 85.2189C67.5638 86.3621 60.9901 80.138 58.7693 76.883C51.393 87.0766 41.6848 82.5514 37.6873 80.6461C34.4893 79.1218 32.3573 74.2632 31.691 72.0244C22.5063 76.8354 16.986 73.3105 12.7505 68.1184C9.36219 63.9647 10.4821 58.0041 11.4656 55.5431C7.69655 56.4195 7.64262 53.5266 8.08678 51.9705C7.135 51.78 7.08741 50.1446 7.18259 49.3507C7.64574 49.1652 8.18778 49.2505 8.56742 49.3869C8.28333 48.8617 8.15113 47.9217 8.56268 47.9217H9.99036C9.57157 47.3882 9.81587 46.3656 9.99036 45.921C11.5894 45.6162 12.4967 46.3974 12.7505 46.8261C12.9409 45.8353 13.7816 46.0639 14.1782 46.3021C16.0818 46.7975 16.3039 48.7949 16.177 49.7317C16.8432 48.9696 19.6986 47.4167 25.79 47.3024C31.8814 47.1881 35.8789 53.4472 37.1162 56.591C38.7913 55.1048 41.9069 54.0347 43.2552 53.6853C30.5489 43.0154 35.3554 29.3445 35.0223 29.7255C34.6892 30.1066 31.7862 30.059 28.0267 29.3445C24.2671 28.63 20.8883 23.9142 21.1738 18.1982C21.4022 13.6253 25.203 10.3227 27.0749 9.24301C26.4277 9.39543 25.9486 8.48086 25.79 8.00453C25.9042 6.89942 27.0114 6.21032 27.5508 6.00391C26.7893 4.93691 27.868 3.97153 28.5026 3.62222C29.1498 3.62222 29.6923 4.57489 29.8826 5.05123C29.7684 4.28909 30.2792 3.49519 30.5489 3.19351C31.0819 3.19351 31.5959 4.05092 31.7862 4.47962C31.9004 3.56506 32.5952 3.24115 32.9284 3.19351C34.1847 3.46026 34.5305 4.92421 34.5464 5.62284C34.851 4.74637 35.4982 4.87657 35.7837 5.05123C37.002 6.19444 37.021 8.00453 36.8783 8.76667C42.1702 10.2147 43.6518 15.6577 43.7311 18.1982C46.1296 16.7501 49.7115 17.5948 51.2026 18.1982C50.7077 13.7396 54.8035 11.6406 56.9133 11.1484C56.8372 10.0051 57.4527 9.08423 57.7699 8.76667C54.629 6.43261 55.0097 5.19413 55.2001 3.62222C55.3905 2.0503 56.6278 -0.760094 60.9108 0.192582C64.3372 0.954723 64.1786 4.38436 63.671 6.00391C65.9553 6.06742 70.4477 7.47103 70.1431 12.5774C69.8385 17.6837 66.1456 19.0873 64.3372 19.1508C63.4997 24.6383 59.61 24.8986 57.7699 24.3429C59.2166 25.6004 61.6405 30.964 62.6716 33.4886C65.1082 29.0301 70.0955 26.3912 72.2846 25.629C71.3804 21.7707 74.7593 20.3417 75.14 20.3417C75.4445 20.3417 75.9014 20.7863 76.0918 21.0086C76.5676 20.0082 77.9477 19.389 78.4712 19.6272C78.89 19.8177 79.2485 20.6275 79.3754 21.0086C79.8704 20.2083 80.7872 20.2305 81.1838 20.3417C81.9833 20.7227 82.2149 21.6119 82.2308 22.0089C83.2587 20.98 84.2454 21.3579 84.6102 21.6754C85.1813 22.8186 84.8482 23.9301 84.6102 24.3429C85.562 24.4191 86.3076 25.2321 86.5614 25.629C86.1426 29.4397 83.1825 30.0749 81.7549 29.9161C85.1432 37.3851 81.5804 45.54 79.3754 48.6838C83.6394 46.2449 86.5772 46.3339 87.5132 46.6832C86.8279 41.6149 90.8444 39.9033 92.9383 39.681C93.2429 35.9084 95.3178 36.5213 96.3172 37.2993C97.1547 35.8894 98.1573 36.2672 98.5539 36.6324C98.6834 37.0052 98.6167 37.4198 98.4643 37.8075C98.9342 37.437 99.4709 37.3085 99.7912 37.2993C100.376 38.1607 100.124 39.0869 99.8707 39.55C100.569 38.484 101.747 38.7714 102.266 39.0618C101.847 40.586 101.171 41.4435 100.886 41.6816C101.419 41.3768 102.028 41.8087 102.266 42.0627C102.38 43.9681 100.664 45.1113 99.7912 45.4447C100.21 49.2173 97.3324 51.2084 95.8413 51.7324Z" fill="#4F7158"/>
<path d="M0.865986 51.5737L0.617058 51.6734L0.58514 51.9396C0.533667 52.369 0.518699 53.0309 0.652313 53.6283C0.750572 54.0676 0.961168 54.5963 1.40776 54.8807C1.24462 55.6742 1.21333 56.7044 1.64837 57.5238C1.91455 58.0251 2.35046 58.4353 2.99638 58.646C3.45155 58.7945 3.99312 58.8383 4.63004 58.7654C4.21459 60.0601 3.85049 61.8775 3.86799 63.8428C3.88919 66.2256 4.47247 68.8659 6.25165 71.0469C8.39296 73.6719 10.902 75.931 14.0848 76.8979C17.1733 77.8361 20.8225 77.5363 25.2735 75.3126C25.6567 76.4492 26.3103 77.9971 27.204 79.4794C28.2356 81.1903 29.6252 82.8776 31.3442 83.697C33.3404 84.6484 36.8458 86.2985 40.8015 86.3964C44.664 86.492 48.9202 85.1073 52.6137 80.2919C53.8374 81.924 55.9334 84.0546 58.6815 85.7291C61.7317 87.5876 65.6107 88.8986 70.0033 88.3098C75.3917 87.5874 79.1934 85.8315 81.4711 83.153C83.6932 80.5399 84.4024 77.1233 83.8168 73.1366C86.184 72.1044 89.21 70.0302 90.9702 66.956C92.7817 63.7922 93.2176 59.6272 90.3452 54.5935C91.9529 53.8335 94.3476 51.8405 94.1214 48.3714C94.573 48.1516 95.1193 47.7924 95.5816 47.2931C96.1651 46.6631 96.6349 45.7856 96.5686 44.6784L96.5588 44.5155L96.4472 44.3964C96.2938 44.2326 96.03 44.0181 95.7089 43.8868C95.6982 43.8825 95.6875 43.8782 95.6766 43.874C95.9841 43.3868 96.3115 42.7039 96.5532 41.8243L96.647 41.4828L96.338 41.31C96.021 41.1326 95.512 40.9577 94.9617 40.9886C94.7931 40.9981 94.6216 41.0271 94.4523 41.0802C94.4501 40.641 94.3359 40.158 94.0166 39.688L93.8774 39.4831L93.6297 39.4902C93.4358 39.4957 93.1896 39.5343 92.9246 39.621C92.9179 39.4569 92.8894 39.2909 92.8324 39.1268L92.7951 39.0195L92.7116 38.9426C92.4456 38.6977 91.9754 38.4424 91.4122 38.4926C90.9311 38.5356 90.4609 38.7933 90.0487 39.3169C89.5098 39.0028 88.7852 38.7674 88.0792 38.9964C87.1852 39.2863 86.5775 40.2221 86.3752 41.9247C85.2862 42.1074 83.8634 42.6278 82.7284 43.6754C81.5444 44.7681 80.7024 46.4098 80.8521 48.7432C80.2582 48.6603 79.4505 48.6654 78.4669 48.8352C77.3664 49.0251 76.0281 49.4239 74.49 50.1547C75.4181 48.5011 76.3874 46.236 76.9556 43.6621C77.6699 40.4255 77.7559 36.6711 76.2964 33.0245C77.0064 32.9828 77.8526 32.7784 78.6299 32.2857C79.7244 31.5921 80.6388 30.3539 80.8622 28.3212L80.8796 28.1626L80.7937 28.0282C80.6404 27.7885 80.3563 27.4472 79.9767 27.1517C79.7292 26.9591 79.4277 26.7756 79.0833 26.6581C79.2729 26.0236 79.3476 25.0801 78.8661 24.1162L78.8261 24.036L78.7585 23.9772C78.5033 23.755 78.0645 23.535 77.5266 23.5279C77.1582 23.5231 76.7622 23.6182 76.3648 23.8556C76.3338 23.7744 76.298 23.692 76.2569 23.6098C76.0645 23.225 75.7426 22.8208 75.2298 22.5763L75.1947 22.5596L75.1573 22.5491C74.8941 22.4753 74.4875 22.4359 74.0639 22.5361C73.8335 22.5906 73.595 22.6876 73.3739 22.8437C73.343 22.7834 73.3103 22.723 73.2759 22.6634C73.1878 22.5105 73.0834 22.3534 72.9639 22.2159C72.8475 22.082 72.6966 21.9434 72.5099 21.8584C72.2558 21.7428 71.9623 21.7528 71.7121 21.8006C71.4493 21.8507 71.17 21.9548 70.9027 22.0971C70.5354 22.2925 70.158 22.578 69.8643 22.94C69.84 22.9195 69.8152 22.8994 69.7902 22.8796C69.6881 22.7991 69.5709 22.7176 69.4471 22.6545C69.3291 22.5944 69.1693 22.5323 68.9914 22.5323C68.8562 22.5323 68.6953 22.5817 68.5666 22.6289C68.4168 22.6839 68.2368 22.7643 68.041 22.8711C67.6499 23.0844 67.179 23.4121 66.7505 23.8737C65.9352 24.7521 65.2929 26.0987 65.616 27.9817C64.4742 28.4242 62.8271 29.2485 61.1584 30.4484C59.5159 31.6295 57.8329 33.1885 56.5935 35.1262C56.0756 33.9085 55.3709 32.3438 54.6316 30.8796C54.1706 29.9665 53.6931 29.0863 53.2366 28.3516C53.0783 28.0969 52.9197 27.8548 52.7624 27.6322C53.604 27.6738 54.5722 27.5352 55.49 27.0567C56.8889 26.3273 58.0938 24.8487 58.576 22.2173C59.544 22.1072 60.8237 21.6869 61.9463 20.7441C63.2336 19.663 64.2866 17.9177 64.4458 15.2471C64.6078 12.532 63.4838 10.7597 61.9953 9.67675C60.7458 8.76769 59.2575 8.35477 58.0973 8.23278C58.2757 7.39886 58.3403 6.31807 58.0528 5.29696C57.6868 3.99698 56.7511 2.81456 54.8604 2.39402C52.6082 1.89305 51.0694 2.3696 50.0701 3.26707C49.0937 4.1439 48.7061 5.35727 48.6027 6.21062C48.592 6.29946 48.5801 6.38953 48.568 6.48085C48.4795 7.15133 48.3821 7.889 48.6596 8.69807C48.9512 9.54827 49.63 10.4285 50.9784 11.4874C50.6719 11.9342 50.3464 12.6226 50.3096 13.4425C49.2222 13.7533 47.7888 14.4116 46.6242 15.4981C45.4471 16.5963 44.539 18.141 44.5612 20.1841C43.7914 19.9377 42.7762 19.7036 41.693 19.6208C40.4894 19.5289 39.1596 19.6206 37.9845 20.1277C37.8442 18.8297 37.4125 17.1136 36.5053 15.4945C35.4683 13.6439 33.7991 11.9035 31.2267 11.085C31.2593 10.6739 31.2463 10.1525 31.136 9.60529C30.9843 8.85247 30.6415 8.01833 29.9445 7.36431L29.9107 7.33254L29.8711 7.30832C29.6599 7.17915 29.3048 7.05543 28.9205 7.14543C28.8358 7.16529 28.7543 7.19435 28.6768 7.23258C28.6205 7.05064 28.5484 6.86535 28.4576 6.68537C28.1727 6.12052 27.6779 5.56477 26.8737 5.39403L26.7952 5.37737L26.7158 5.38872C26.4024 5.43354 25.9035 5.63912 25.5574 6.10802C25.5378 6.08257 25.5179 6.05738 25.4976 6.03252C25.3721 5.8789 25.2214 5.72423 25.0486 5.60491C24.877 5.48638 24.656 5.38417 24.4003 5.38417H24.1981L24.0633 5.53497C23.8989 5.71879 23.6774 6.03205 23.51 6.40903C23.5062 6.41763 23.5024 6.42629 23.4986 6.435C23.2389 6.1358 22.8495 5.81287 22.354 5.81287H22.2378L22.136 5.86892C21.7761 6.06705 21.2763 6.44413 20.9681 6.9522C20.8107 7.21159 20.694 7.52095 20.6884 7.86622C20.6853 8.05852 20.7169 8.25164 20.7859 8.44261C20.5491 8.57741 20.2912 8.75688 20.0531 8.9802C19.6464 9.36164 19.2637 9.90397 19.1917 10.6008L19.1817 10.6977L19.2125 10.7901C19.3032 11.0625 19.4851 11.4644 19.7509 11.7888C19.8044 11.8541 19.8662 11.9218 19.936 11.9867C19.041 12.6188 17.9609 13.5652 17.005 14.7728C15.7537 16.3538 14.694 18.4104 14.5737 20.8184C14.4263 23.7704 15.2243 26.472 16.5548 28.5347C17.8815 30.5914 19.7611 32.0451 21.7937 32.4314C23.6907 32.7919 25.3783 32.9856 26.6413 33.0403C27.2711 33.0676 27.8064 33.0608 28.214 33.0198C28.2457 33.0167 28.277 33.0132 28.3077 33.0096C28.2372 33.3582 28.1493 33.8227 28.0665 34.385C27.8576 35.8051 27.6818 37.8487 27.9 40.2451C28.3225 44.8853 30.2225 50.8349 36.18 56.1253C35.5468 56.3238 34.7733 56.5989 33.9812 56.9392C33.0081 57.3573 31.9817 57.8843 31.1512 58.5036C30.4472 56.9222 29.1945 54.8235 27.4468 53.0503C25.4809 51.0556 22.8465 49.4328 19.6329 49.4932C16.5511 49.551 14.27 49.973 12.6629 50.4862C11.7269 50.7852 11.0045 51.12 10.4844 51.4414C10.4464 51.0828 10.3619 50.697 10.2089 50.3229C9.89384 49.5531 9.28105 48.8245 8.20397 48.5236C7.95754 48.3876 7.57372 48.2464 7.18011 48.2977C6.9531 48.3272 6.71934 48.4223 6.52654 48.6192C6.50957 48.6365 6.49317 48.6544 6.47732 48.6728C5.92325 48.2362 5.01088 47.8807 3.75713 48.1197L3.51209 48.1664L3.42095 48.3986C3.3206 48.6543 3.20341 49.0646 3.16868 49.4944C3.15344 49.6831 3.15232 49.897 3.1859 50.1123H2.41412C2.27058 50.1123 2.13013 50.1554 2.01117 50.2457C1.89751 50.332 1.82784 50.4426 1.78535 50.5423C1.70453 50.732 1.69408 50.9471 1.70425 51.1258C1.70996 51.226 1.72324 51.331 1.74307 51.4373C1.45879 51.424 1.1558 51.4577 0.865986 51.5737Z" stroke="black" stroke-width="0.904208"/>
</svg>
